<svg xmlns="http://www.w3.org/2000/svg" xmlns:xlink="http://www.w3.org/1999/xlink" version="1.1" id="Layer_1" x="0px" y="0px" style="enable-background:new 0 0 960 960;" xml:space="preserve" viewBox="111.39 179.77 725.41 599.25">
<style type="text/css">
	.st0{fill:#DD629A;}
	.st1{fill:#FF7BAC;}
	.st2{fill:#333333;}
	.st3{fill:none;stroke:#FF7BAC;stroke-width:23.6161;stroke-linecap:round;stroke-miterlimit:10;}
	.st4{fill:#FFED6C;}
	.st5{fill:#FFD345;}
	.st6{fill:#FBB03B;}
</style>
<g>
	<path class="st0" d="M373.6,773.4l-29.5-9.1c-9.4-2.9-15.4-12.1-14.2-21.9l10.5-84.2l95.9,29.6l-38.8,75.5   C393.2,772,383,776.3,373.6,773.4z"/>
	<path class="st0" d="M672.9,770.1l-29.8,8.2c-9.5,2.6-19.5-2-23.7-10.9l-36.3-76.7l96.8-26.5l7.9,84.5   C688.7,758.5,682.4,767.5,672.9,770.1z"/>
	<ellipse class="st1" cx="510.5" cy="507.3" rx="293.5" ry="216.5"/>
	<path class="st1" d="M823.6,549.2l-30.1,8.1c-11.4,3.1-22.5-5.5-22.5-17.2v-65.6c0-11.1,10.1-19.5,21-17.6l30.1,5.4   c8.5,1.5,14.7,8.9,14.7,17.6V532C836.8,540.1,831.4,547.1,823.6,549.2z"/>
	<circle class="st2" cx="684.6" cy="436.9" r="18.5"/>
	<path class="st1" d="M660,323.8l84.4-33.6c8-3.2,16.7,2.9,16.4,11.5l-3.1,88.6c-0.3,9.4-10.9,14.7-18.6,9.5l-81.3-54.9   C649.8,339.5,651.1,327.4,660,323.8z"/>
	<path class="st0" d="M700.5,334.4l30.1-13.6c2.8-1.2,5.8,1,5.4,4l-4,31.7c-0.4,3.2-4.2,4.5-6.5,2.3c-2.7-2.5-6.2-5.5-10.6-8.6   c-5.1-3.6-10.5-6.7-14.7-9C697.4,339.8,697.6,335.7,700.5,334.4z"/>
	<path class="st3" d="M228.4,512.8c0,0-59.9-3.4-64.5,37.7c-4.8,43,38.5,42,36.5,5.7c-2.5-43.4-48.5-52.5-77.2-31.6"/>
	<path class="st0" d="M410.7,389.2c-6.3,0-12.4-3.3-15.6-9.3c-4.7-8.6-1.5-19.3,7.1-24c1.9-1,47.4-25.5,103-25.5   s98.3,23.1,100.1,24.1c8.6,4.7,11.7,15.5,7,24.1s-15.5,11.7-24,7c-0.3-0.2-36.9-19.7-83-19.7c-46.2,0-85.6,21-86,21.2   C416.4,388.5,413.5,389.2,410.7,389.2z"/>
	<g>
		
			<ellipse transform="matrix(0.9999 -1.440277e-02 1.440277e-02 0.9999 -3.7919 7.2824)" class="st4" cx="503.7" cy="266.9" rx="85.9" ry="85.9"/>
		
			<ellipse transform="matrix(0.9999 -1.440277e-02 1.440277e-02 0.9999 -3.7919 7.2824)" class="st5" cx="503.7" cy="266.9" rx="64.5" ry="64.5"/>
		<path class="st6" d="M443.8,275.1c-0.5-35.6,28-65,63.6-65.5c21.6-0.3,40.9,10.1,52.8,26.3c-11.1-20.3-32.8-33.9-57.5-33.5    c-35.6,0.5-64.1,29.8-63.6,65.5c0.2,14,4.9,26.9,12.6,37.3C446.8,296.2,444,286,443.8,275.1z"/>
		<g>
			<path class="st6" d="M503.1,312.2l-0.1-9.6c-6.8-0.2-13.4-1.9-17.2-4.1l2.9-11.9c4.3,2.3,10.3,4.3,16.8,4.2     c5.8-0.1,9.7-2.4,9.6-6.4c-0.1-3.8-3.3-6.2-10.8-8.6c-10.9-3.5-18.3-8.4-18.4-18.2c-0.1-8.9,6-15.9,16.8-18.2l-0.1-9.6l9.9-0.1     l0.1,8.9c6.8,0.2,11.3,1.6,14.7,3.1l-2.8,11.4c-2.6-1.1-7.3-3.3-14.6-3.2c-6.6,0.1-8.6,3-8.6,5.8c0,3.3,3.6,5.4,12.2,8.5     c12.1,4.1,17,9.5,17.1,18.6c0.1,9-6.1,16.7-17.7,18.9L513,312L503.1,312.2z"/>
		</g>
		<g>
			<path class="st4" d="M498.9,308.1l-0.1-9.6c-6.8-0.2-13.4-1.9-17.2-4.1l2.9-11.9c4.3,2.3,10.3,4.3,16.8,4.2     c5.8-0.1,9.7-2.4,9.6-6.4c-0.1-3.8-3.3-6.2-10.8-8.6c-10.9-3.5-18.3-8.4-18.4-18.2c-0.1-8.9,6-15.9,16.8-18.2l-0.1-9.6l9.9-0.1     l0.1,8.9c6.8,0.2,11.3,1.6,14.7,3.1l-2.8,11.4c-2.6-1.1-7.3-3.3-14.6-3.2c-6.6,0.1-8.6,3-8.6,5.8c0,3.3,3.6,5.4,12.2,8.5     c12.1,4.1,17,9.5,17.1,18.6c0.1,9-6.1,16.7-17.7,18.9l0.1,10.3L498.9,308.1z"/>
		</g>
	</g>
	<path class="st0" d="M807.6,532.4L807.6,532.4c-5.4,0-9.8-4.4-9.8-9.8v-33.5c0-5.4,4.4-9.8,9.8-9.8l0,0c5.4,0,9.8,4.4,9.8,9.8v33.5   C817.5,528,813.1,532.4,807.6,532.4z"/>
</g>
</svg>